<svg xmlns="http://www.w3.org/2000/svg" viewBox="503.18 324.33 950.96 445.93" fill="#6f0244" role="img" aria-label="Common Ground logo">
<g transform="matrix(1 0 0 -1 0 1080)">
<path transform="matrix(1.0000 0.0000 0.0000 1.0000 725.6736 544.4418)" d="M0.28 8.77C42.71 25.42 65.65 73.45 60.95 116.66C57.77 137.31 57.63 165.80 79.88 177.49C102.69 186.71 120.65 163.46 127.56 145.43C132.81 134.56 134.89 117.63 136.96 119.55C140.97 117.35 149.81 124.10 153.13 127.95C167.78 148.32 172.34 174.74 193.76 191.67C214.36 203.09 220.30 176.67 220.02 162.49C221.68 114.60 212.56 69.60 212.14 23.36C201.50 74.00 210.62 126.99 199.71 175.57C198.46 178.59 198.74 175.98 201.92 175.57C203.16 175.57 203.44 175.57 203.71 175.57C203.99 175.57 204.54 176.12 204.13 175.57C203.71 175.02 203.44 175.15 202.61 174.05C188.79 157.95 183.40 131.39 169.44 113.77C156.31 96.98 126.87 87.76 115.40 111.71C113.60 115.56 113.19 118.59 112.22 121.89C106.69 149.83 82.37 181.76 77.53 134.14C84.44 80.88 54.73 18.27 0.00 8.63L0.28 8.77Z"/>
<path transform="matrix(1.0000 0.0000 0.0000 1.0000 951.2991 544.5795)" d="M220.22 8.63C165.49 18.27 135.78 80.88 142.69 134.14C137.85 181.90 113.53 149.83 108.00 121.89C107.03 118.59 106.62 115.56 104.82 111.71C93.35 87.76 63.91 96.85 50.78 113.77C36.83 131.25 31.44 157.95 17.62 174.05C16.79 175.15 16.51 175.02 16.09 175.57C15.68 175.98 16.09 175.43 16.51 175.57C16.79 175.57 17.06 175.57 18.31 175.57C21.62 176.12 21.76 178.59 20.52 175.57C9.60 126.99 18.72 74.00 8.08 23.36C7.66 69.74 -1.46 114.74 0.20 162.49C0.06 176.67 5.87 203.09 26.46 191.67C47.88 174.60 52.44 148.32 67.09 127.95C70.41 124.10 79.25 117.35 83.26 119.55C85.34 117.77 87.41 134.56 92.66 145.43C99.57 163.46 117.54 186.71 140.34 177.49C162.73 165.93 162.45 137.31 159.28 116.66C157.34 95.20 160.80 73.04 171.44 53.77C182.49 34.92 197.70 16.48 219.95 8.77L220.22 8.63Z"/>
<path transform="matrix(1.0000 0.0000 0.0000 1.0000 630.2289 536.1671)" d="M77.75 170.90C56.19 146.00 27.03 120.54 18.74 88.88C11.14 58.61 46.24 35.90 73.06 47.18C80.79 49.80 87.01 54.89 94.48 59.02C116.04 67.55 134.56 84.75 131.79 109.25C127.09 132.92 110.09 194.16 76.51 167.33C79.14 170.35 82.73 174.90 86.46 176.68C111.34 187.83 129.44 156.87 138.98 138.56C154.73 111.87 154.04 76.91 129.44 55.58C123.22 48.97 112.31 44.43 105.26 40.44C97.52 35.90 89.50 29.57 80.52 26.54C50.39 15.12 11.83 30.26 2.02 62.05C-11.11 112.83 42.79 146.41 77.89 170.90L77.75 170.90Z"/>
<path transform="matrix(1.0000 0.0000 0.0000 1.0000 1117.5161 536.1671)" d="M71.70 170.90C106.80 146.41 160.70 112.69 147.57 62.05C137.76 30.26 99.20 15.12 69.07 26.54C59.95 29.57 52.07 35.76 44.33 40.44C37.28 44.43 26.37 48.97 20.15 55.58C-4.45 77.05 -5.15 111.87 10.61 138.56C20.01 156.87 38.25 187.83 63.13 176.68C66.86 174.90 70.45 170.49 73.08 167.33C39.50 194.16 22.63 132.92 17.80 109.25C16.28 94.80 22.77 80.21 34.11 70.99C40.60 65.35 46.82 63.56 55.25 58.88C62.71 54.75 68.93 49.66 76.67 47.05C103.48 35.90 138.59 58.47 130.99 88.75C122.69 120.40 93.40 145.86 71.97 170.77L71.70 170.90Z"/>
<path transform="matrix(1.0000 0.0000 0.0000 1.0000 1255.3407 510.1612)" d="M98.75 1.08C99.99 41.95 117.13 79.80 120.59 119.15C120.45 125.90 120.03 132.92 116.72 136.63C112.16 145.17 96.26 147.78 82.03 148.19C69.59 148.74 57.57 141.59 50.66 130.72C42.78 117.92 42.09 99.34 33.38 86.68C23.57 65.48 2.28 47.59 11.96 24.47C15.14 17.59 21.49 12.36 27.71 6.99C20.39 10.43 12.37 13.87 6.84 21.03C-14.58 51.86 20.80 85.30 24.40 115.16C26.75 143.93 51.35 171.04 82.30 170.07C190.80 166.91 114.92 56.26 98.61 0.94L98.75 1.08Z"/>
<path transform="matrix(1.0000 0.0000 0.0000 1.0000 524.9956 505.6636)" d="M106.70 141.13C82.51 152.00 55.01 147.74 37.32 128.88C1.39 93.79 29.99 29.11 79.61 27.18C101.86 26.22 141.11 17.96 141.25 50.16C143.32 43.83 144.15 35.85 139.73 28.97C135.45 22.23 128.12 18.37 121.21 15.90C92.33 8.33 61.64 5.30 35.25 21.68C-5.66 46.72 -13.82 112.23 25.99 141.68C48.51 161.22 85.69 161.77 106.70 141.13Z"/>
<path transform="matrix(1.0000 0.0000 0.0000 1.0000 792.2051 321.2029)" d="M77.75 170.90C56.19 146.00 27.03 120.54 18.74 88.88C11.14 58.61 46.24 35.90 73.06 47.18C80.79 49.80 87.01 54.89 94.48 59.02C116.04 67.55 134.56 84.75 131.79 109.25C127.09 132.92 110.09 194.16 76.51 167.33C79.14 170.35 82.73 174.90 86.46 176.68C111.34 187.83 129.44 156.87 138.98 138.56C154.73 111.87 154.04 76.91 129.44 55.58C123.22 48.97 112.31 44.43 105.26 40.44C97.52 35.90 89.50 29.57 80.52 26.54C50.39 15.12 11.83 30.26 2.02 62.05C-11.11 112.83 42.79 146.41 77.89 170.90L77.75 170.90Z"/>
<path transform="matrix(1.0000 0.0000 0.0000 1.0000 948.8154 328.0636)" d="M21.07 178.36C26.59 137.76 15.81 97.71 18.85 58.35C20.24 51.61 21.62 44.86 25.49 41.84C31.43 34.13 47.46 34.13 61.56 36.06C74.00 37.57 84.64 46.52 89.62 58.49C95.28 72.39 92.93 90.83 99.57 104.73C105.79 127.30 123.75 148.36 110.48 169.55C106.34 175.74 99.01 180.01 92.10 184.14C99.98 181.94 108.41 179.87 115.05 173.68C141.30 146.70 111.87 108.03 113.11 78.03C115.60 49.27 95.70 18.58 65.02 14.45C-42.51 0.00 14.16 121.38 21.07 178.63L21.07 178.36Z"/>
<path transform="matrix(1.0000 0.0000 0.0000 1.0000 1067.8506 332.6127)" d="M104.78 19.05C99.25 59.64 109.89 99.69 106.99 139.05C105.61 145.79 104.23 152.54 100.36 155.57C94.41 163.27 78.38 163.27 64.28 161.35C51.85 159.83 41.20 150.89 36.23 138.91C30.56 125.01 32.91 106.57 26.42 92.67C20.20 70.10 2.23 49.05 15.50 27.85C19.64 21.66 26.97 17.53 33.88 13.27C26.00 15.47 17.57 17.53 10.94 23.72C-15.32 50.70 14.12 89.37 12.87 119.37C10.38 148.13 30.29 178.82 60.97 182.95C168.49 197.40 111.83 76.02 104.92 18.77L104.78 19.05Z"/>
<path transform="matrix(1.0000 0.0000 0.0000 1.0000 703.8127 343.8336)" d="M120.40 116.21C118.88 144.28 103.68 158.05 75.07 155.57C58.07 154.33 39.55 148.55 24.21 141.26C20.06 138.92 22.97 133.82 24.62 130.80C36.79 108.64 30.98 80.43 25.18 58.27C17.58 30.88 17.02 12.30 47.29 1.02C40.79 1.71 34.16 2.26 27.67 5.15C5.41 13.27 5.41 43.13 8.18 61.30C10.39 83.18 15.23 104.24 4.03 123.23C-16.56 164.10 47.01 173.87 75.21 172.77C107.13 171.95 130.90 149.51 120.54 116.35L120.40 116.21Z"/>
<path transform="matrix(1.0000 0.0000 0.0000 1.0000 1192.8691 317.7421)" d="M118.93 277.99C165.78 240.84 152.52 204.23 133.58 157.58C126.39 136.38 137.31 115.46 131.09 94.00C124.74 45.14 55.91 0.00 16.94 44.45C-15.68 82.02 -0.06 155.24 54.11 160.33C77.75 162.67 99.44 154.41 118.24 143.81C97.51 149.87 75.54 154.41 56.05 149.32C15.28 141.20 8.51 84.64 32.83 58.21C61.44 29.31 104.70 65.92 111.19 98.26C116.17 113.81 111.19 129.23 113.13 145.33C126.95 201.34 166.06 221.29 118.93 277.72L118.93 277.99Z"/>
<path transform="matrix(1.0000 0.0000 0.0000 1.0000 556.4684 336.3209)" d="M131.20 182.49C119.04 165.15 96.65 139.82 73.57 155.24C63.75 160.88 56.71 161.43 47.86 158.13C8.20 141.61 17.59 126.75 34.87 94.41C39.85 84.50 44.96 73.76 47.45 61.38C48.97 52.71 48.55 41.97 53.94 34.82C61.27 23.53 83.66 26.84 99.96 36.33C118.48 46.10 126.64 60.83 128.85 81.33C129.82 93.86 131.34 110.23 120.97 117.67C117.93 119.32 115.72 117.67 112.82 115.60C101.76 106.24 90.29 89.59 74.53 84.77C69.01 83.12 63.20 82.99 57.81 84.09C69.01 84.36 78.27 90.28 84.76 98.26C94.16 107.76 99.27 123.86 113.51 130.60C154.97 138.58 151.10 67.85 137.42 44.45C119.17 18.03 86.97 0.00 54.77 8.67C20.77 20.23 31.55 59.18 15.38 84.77C-8.11 126.06 -8.94 157.44 43.16 172.99C90.70 181.93 75.23 133.22 131.06 182.35L131.20 182.49Z"/>
</g>
</svg>
